# xmcd
#
# Track frame offsets:
#  150
#  18459
#  33449
#  58784
#  75273
#  100679
#  116103
#  139153
#  158477
#  180252
#
# Disc length: 2485 seconds
#
# Revision: 0
# Processed by: cddbd v1.5.2PL0 Copyright (c) Steve Scherf et al.
# Submitted via: Collectorz.com_Music_Collector 6.11
#
DISCID=7009b30a
DTITLE=Perfect - Live
DYEAR=1983
DGENRE=Rock
TTITLE0=Po co
TTITLE1=Idz precz
TTITLE2=Chcemy byc soba
TTITLE3=Opanuj sie
TTITLE4=Nieme kino
TTITLE5=Chce mi sie z czegos smiac
TTITLE6=Pepe wroc
TTITLE7=Autobiografia
TTITLE8=Pocztowka do Panstwa Jareckich
TTITLE9=Nie placz Ewka
EXTD=
EXTT0=
EXTT1=
EXTT2=
EXTT3=
EXTT4=
EXTT5=
EXTT6=
EXTT7=
EXTT8=
EXTT9=
PLAYORDER=
